<svg xmlns="http://www.w3.org/2000/svg" viewBox="0 0 1600 900" role="img" aria-label="Neon city backdrop">
  <defs>
    <linearGradient id="sky" x1="0" x2="0" y1="0" y2="1">
      <stop offset="0" stop-color="#06111f"/>
      <stop offset="0.45" stop-color="#101427"/>
      <stop offset="1" stop-color="#05070d"/>
    </linearGradient>
    <linearGradient id="glow" x1="0" x2="1" y1="0" y2="0">
      <stop offset="0" stop-color="#18f7ff" stop-opacity="0"/>
      <stop offset="0.42" stop-color="#18f7ff" stop-opacity=".85"/>
      <stop offset="0.58" stop-color="#ff3fc7" stop-opacity=".9"/>
      <stop offset="1" stop-color="#ffde4a" stop-opacity="0"/>
    </linearGradient>
    <filter id="blur">
      <feGaussianBlur stdDeviation="5"/>
    </filter>
  </defs>
  <rect width="1600" height="900" fill="url(#sky)"/>
  <path d="M0 680h1600" stroke="#18f7ff" stroke-width="2" stroke-opacity=".22"/>
  <path d="M0 765h1600" stroke="#ffde4a" stroke-width="2" stroke-opacity=".14"/>
  <g opacity=".22">
    <path d="M0 900 610 510h380l610 390" fill="none" stroke="#18f7ff" stroke-width="2"/>
    <path d="M290 900 705 510M540 900 785 510M800 900V510M1060 900 815 510M1310 900 895 510" stroke="#18f7ff" stroke-width="2"/>
    <path d="M90 845h1420M180 790h1240M270 735h1060M360 680h880M450 625h700M540 570h520" stroke="#ff3fc7" stroke-width="2"/>
  </g>
  <g filter="url(#blur)" opacity=".75">
    <rect x="0" y="486" width="1600" height="12" fill="url(#glow)"/>
    <rect x="180" y="280" width="1240" height="6" fill="url(#glow)" opacity=".5"/>
  </g>
  <g fill="#070b14">
    <rect x="20" y="505" width="95" height="220"/>
    <rect x="126" y="430" width="140" height="295"/>
    <rect x="282" y="540" width="84" height="185"/>
    <rect x="390" y="355" width="165" height="370"/>
    <rect x="590" y="460" width="92" height="265"/>
    <rect x="725" y="320" width="180" height="405"/>
    <rect x="932" y="500" width="112" height="225"/>
    <rect x="1080" y="382" width="150" height="343"/>
    <rect x="1270" y="475" width="104" height="250"/>
    <rect x="1408" y="335" width="150" height="390"/>
  </g>
  <g stroke-width="3" stroke-linecap="square">
    <path d="M50 548h35M50 596h35M50 644h35M150 480h82M150 532h82M150 584h82M150 636h82" stroke="#18f7ff" opacity=".65"/>
    <path d="M420 410h100M420 470h100M420 530h100M420 590h100M755 378h120M755 438h120M755 498h120M755 558h120" stroke="#ffde4a" opacity=".58"/>
    <path d="M1112 438h88M1112 498h88M1112 558h88M1438 388h92M1438 448h92M1438 508h92M1438 568h92" stroke="#ff3fc7" opacity=".6"/>
  </g>
  <g opacity=".45">
    <path d="M220 260h210l55 35H275z" fill="#18f7ff"/>
    <path d="M1025 235h265l-68 42H953z" fill="#ff3fc7"/>
    <path d="M1160 152h130l40 28h-210z" fill="#ffde4a"/>
  </g>
</svg>
